<svg width="369" height="411" viewBox="0 0 369 411" fill="none" xmlns="http://www.w3.org/2000/svg">
<mask id="mask0_32_168" style="mask-type:alpha" maskUnits="userSpaceOnUse" x="0" y="0" width="369" height="411">
<path fill-rule="evenodd" clip-rule="evenodd" d="M369 205.5V210H368.957C366.808 321.417 285.046 411 184.5 411C83.9536 411 2.19242 321.417 0.0433604 210H0V205.5V0H184.5H369V205.5Z" fill="#C4C4C4"/>
</mask>
<g mask="url(#mask0_32_168)">
<path d="M371 -21.5H371.5V-22H371V-21.5ZM-3 -21.5V-22H-3.5V-21.5H-3ZM371 -20.5V-20H371.5V-20.5H371ZM279.5 -20.5V-21H279V-20.5H279.5ZM279.5 72.5H279V73H279.5V72.5ZM372 72.5H372.5V72H372V72.5ZM372 73.5V74H372.5V73.5H372ZM279.5 73.5V73H279V73.5H279.5ZM279.5 166.5H279V167H279.5V166.5ZM372 166.5H372.5V166H372V166.5ZM372 167.5V168H372.5V167.5H372ZM279.5 167.5V167H279V167.5H279.5ZM279.5 260.5H279V261H279.5V260.5ZM372.5 260.5V261H373V260.5H372.5ZM372.5 -21V-21.5H372V-21H372.5ZM373.5 -21H374V-21.5H373.5V-21ZM373.5 449V449.5H374V449H373.5ZM373 449V448.5H372.5V449H373ZM373 449.5V450H373.5V449.5H373ZM-1.99997 449.5H-2.49997V450H-1.99997V449.5ZM-1.99997 448.5V448H-2.49997V448.5H-1.99997ZM90.5 448.5V449H91V448.5H90.5ZM90.5 355.5H91V355H90.5V355.5ZM-2 355.5H-2.5V356H-2V355.5ZM-2 354.5V354H-2.5V354.5H-2ZM90.5 354.5V355H91V354.5H90.5ZM90.5 261.5H91V261H90.5V261.5ZM-2 261.5H-2.5V262H-2V261.5ZM-2 260.5V260H-2.5V260.5H-2ZM90.5 260.5V261H91V260.5H90.5ZM90.5 167.5H91V167H90.5V167.5ZM-2 167.5H-2.5V168H-2V167.5ZM-2 166.5V166H-2.5V166.5H-2ZM90.5 166.5V167H91V166.5H90.5ZM90.5 73.5H91V73H90.5V73.5ZM-2.5 73.5V73H-3V73.5H-2.5ZM-2.5 449V449.5H-2V449H-2.5ZM-3.5 449H-4V449.5H-3.5V449ZM-3.5 -21V-21.5H-4V-21H-3.5ZM-3 -21V-20.5H-2.5V-21H-3ZM91.5 448.5H91V449H91.5V448.5ZM184.5 448.5V449H185V448.5H184.5ZM184.5 355.5H185V355H184.5V355.5ZM91.5 355.5V355H91V355.5H91.5ZM185.5 448.5H185V449H185.5V448.5ZM278.5 448.5V449H279V448.5H278.5ZM278.5 355.5H279V355H278.5V355.5ZM185.5 355.5V355H185V355.5H185.5ZM279.5 448.5H279V449H279.5V448.5ZM372.5 448.5V449H373V448.5H372.5ZM372.5 261.5H373V261H372.5V261.5ZM279.5 261.5V261H279V261.5H279.5ZM279.5 354.5H279V355H279.5V354.5ZM372 354.5H372.5V354H372V354.5ZM372 355.5V356H372.5V355.5H372ZM279.5 355.5V355H279V355.5H279.5ZM278.5 354.5V355H279V354.5H278.5ZM278.5 261.5H279V261H278.5V261.5ZM185.5 354.5H185V355H185.5V354.5ZM185.5 261.5V261H185V261.5H185.5ZM184.5 354.5V355H185V354.5H184.5ZM184.5 261.5H185V261H184.5V261.5ZM91.5 354.5H91V355H91.5V354.5ZM91.5 261.5V261H91V261.5H91.5ZM184.5 260.5V261H185V260.5H184.5ZM91.5 260.5H91V261H91.5V260.5ZM184.5 167.5H185V167H184.5V167.5ZM91.5 167.5V167H91V167.5H91.5ZM278.5 260.5V261H279V260.5H278.5ZM185.5 260.5H185V261H185.5V260.5ZM278.5 167.5H279V167H278.5V167.5ZM185.5 167.5V167H185V167.5H185.5ZM278.5 166.5V167H279V166.5H278.5ZM278.5 73.5H279V73H278.5V73.5ZM185.5 166.5H185V167H185.5V166.5ZM185.5 73.5V73H185V73.5H185.5ZM184.5 166.5V167H185V166.5H184.5ZM184.5 73.5H185V73H184.5V73.5ZM91.5 166.5H91V167H91.5V166.5ZM91.5 73.5V73H91V73.5H91.5ZM90.5 72.5V73H91V72.5H90.5ZM-2.5 72.5H-3V73H-2.5V72.5ZM90.5 -20.5H91V-21H90.5V-20.5ZM-2.5 -20.5V-21H-3V-20.5H-2.5ZM184.5 72.5V73H185V72.5H184.5ZM91.5 72.5H91V73H91.5V72.5ZM184.5 -20.5H185V-21H184.5V-20.5ZM91.5 -20.5V-21H91V-20.5H91.5ZM278.5 72.5V73H279V72.5H278.5ZM185.5 72.5H185V73H185.5V72.5ZM278.5 -20.5H279V-21H278.5V-20.5ZM185.5 -20.5V-21H185V-20.5H185.5ZM371 -22H-3V-21H371V-22ZM371.5 -20.5V-21.5H370.5V-20.5H371.5ZM279.5 -20H371V-21H279.5V-20ZM280 72.5V-20.5H279V72.5H280ZM372 72H279.5V73H372V72ZM372.5 73.5V72.5H371.5V73.5H372.5ZM279.5 74H372V73H279.5V74ZM280 166.5V73.5H279V166.5H280ZM372 166H279.5V167H372V166ZM372.5 167.5V166.5H371.5V167.5H372.5ZM279.5 168H372V167H279.5V168ZM280 260.5V167.5H279V260.5H280ZM372.5 260H279.5V261H372.5V260ZM372 -21V260.5H373V-21H372ZM373.5 -21.5H372.5V-20.5H373.5V-21.5ZM374 449V-21H373V449H374ZM373 449.5H373.5V448.5H373V449.5ZM372.5 449V449.5H373.5V449H372.5ZM373 449H-1.99997V450H373V449ZM-1.49997 449.5V448.5H-2.49997V449.5H-1.49997ZM-1.99997 449H90.5V448H-1.99997V449ZM90 355.5V448.5H91V355.5H90ZM-2 356H90.5V355H-2V356ZM-2.5 354.5V355.5H-1.5V354.5H-2.5ZM90.5 354H-2V355H90.5V354ZM90 261.5V354.5H91V261.5H90ZM-2 262H90.5V261H-2V262ZM-2.5 260.5V261.5H-1.5V260.5H-2.5ZM90.5 260H-2V261H90.5V260ZM90 167.5V260.5H91V167.5H90ZM-2 168H90.5V167H-2V168ZM-2.5 166.5V167.5H-1.5V166.5H-2.5ZM90.5 166H-2V167H90.5V166ZM90 73.5V166.5H91V73.5H90ZM-2.5 74H90.5V73H-2.5V74ZM-2 449V73.5H-3V449H-2ZM-3.5 449.5H-2.5V448.5H-3.5V449.5ZM-4 -21V449H-3V-21H-4ZM-3 -21.5H-3.5V-20.5H-3V-21.5ZM-3.5 -21.5V-21H-2.5V-21.5H-3.5ZM91.5 449H184.5V448H91.5V449ZM184 355.5V448.5H185V355.5H184ZM91.5 356H184.5V355H91.5V356ZM92 448.5V355.5H91V448.5H92ZM185.5 449H278.5V448H185.5V449ZM278 355.5V448.5H279V355.5H278ZM185.5 356H278.5V355H185.5V356ZM186 448.5V355.5H185V448.5H186ZM279.5 449H372.5V448H279.5V449ZM372 261.5V448.5H373V261.5H372ZM279.5 262H372.5V261H279.5V262ZM280 354.5V261.5H279V354.5H280ZM372 354H279.5V355H372V354ZM372.5 355.5V354.5H371.5V355.5H372.5ZM279.5 356H372V355H279.5V356ZM280 448.5V355.5H279V448.5H280ZM279 354.5V261.5H278V354.5H279ZM185.5 355H278.5V354H185.5V355ZM185 261.5V354.5H186V261.5H185ZM278.5 261H185.5V262H278.5V261ZM185 354.5V261.5H184V354.5H185ZM91.5 355H184.5V354H91.5V355ZM91 261.5V354.5H92V261.5H91ZM184.5 261H91.5V262H184.5V261ZM184.5 260H91.5V261H184.5V260ZM184 167.5V260.5H185V167.5H184ZM91.5 168H184.5V167H91.5V168ZM92 260.5V167.5H91V260.5H92ZM278.5 260H185.5V261H278.5V260ZM278 167.5V260.5H279V167.5H278ZM185.5 168H278.5V167H185.5V168ZM186 260.5V167.5H185V260.5H186ZM279 166.5V73.5H278V166.5H279ZM185.5 167H278.5V166H185.5V167ZM185 73.5V166.5H186V73.5H185ZM278.5 73H185.5V74H278.5V73ZM185 166.5V73.5H184V166.5H185ZM91.5 167H184.5V166H91.5V167ZM91 73.5V166.5H92V73.5H91ZM184.5 73H91.5V74H184.5V73ZM90.5 72H-2.5V73H90.5V72ZM90 -20.5V72.5H91V-20.5H90ZM-2.5 -20H90.5V-21H-2.5V-20ZM-2 72.5V-20.5H-3V72.5H-2ZM184.5 72H91.5V73H184.5V72ZM184 -20.5V72.5H185V-20.5H184ZM91.5 -20H184.5V-21H91.5V-20ZM92 72.5V-20.5H91V72.5H92ZM278.5 72H185.5V73H278.5V72ZM278 -20.5V72.5H279V-20.5H278ZM185.5 -20H278.5V-21H185.5V-20ZM186 72.5V-20.5H185V72.5H186Z" fill="black" fill-opacity="0.03"/>
<circle cx="138.5" cy="25.5" r="46.5" fill="#1EC4F8"/>
<circle cx="231.5" cy="25.5" r="46.5" fill="#523EC1"/>
<circle cx="231.5" cy="25.5" r="46.5" fill="#523EC1"/>
<circle cx="44.5" cy="213.5" r="46.5" fill="#523EC1"/>
<circle cx="44.5" cy="213.5" r="46.5" fill="#0B1F51"/>
<circle cx="44.5" cy="306.5" r="46.5" fill="#523EC1"/>
<circle cx="44.5" cy="306.5" r="46.5" fill="#B7C4D4"/>
<circle cx="76.5" cy="87.5" r="13.5" fill="#523EC1"/>
<circle cx="76.5" cy="87.5" r="13.5" fill="#C5D4D9"/>
<circle cx="110.5" cy="146.5" r="13.5" fill="#523EC1"/>
<circle cx="110.5" cy="146.5" r="13.5" fill="#C5D4D9"/>
<circle cx="293.5" cy="246.5" r="13.5" fill="#523EC1"/>
<circle cx="293.5" cy="246.5" r="13.5" fill="#C5D4D9"/>
<circle cx="257.5" cy="95.5" r="13.5" fill="#523EC1"/>
<circle cx="257.5" cy="95.5" r="13.5" fill="#C5D4D9"/>
<circle cx="138.5" cy="306.5" r="46.5" fill="#523EC1"/>
<circle cx="138.5" cy="306.5" r="46.5" fill="#AAC1D1"/>
<circle cx="324.5" cy="306.5" r="46.5" fill="#523EC1"/>
<circle cx="324.5" cy="306.5" r="46.5" fill="#1DBEF5"/>
<circle cx="42.5" cy="402.5" r="46.5" fill="#523EC1"/>
<circle cx="42.5" cy="402.5" r="46.5" fill="#1DBEF5"/>
<circle cx="326.5" cy="121.5" r="46.5" fill="#523EC1"/>
<circle cx="326.5" cy="121.5" r="46.5" fill="#1DBEF5"/>
<circle cx="135.5" cy="399.5" r="46.5" fill="#523EC1"/>
<circle cx="135.5" cy="399.5" r="46.5" fill="#62A1C0"/>
<circle cx="231.5" cy="399.5" r="46.5" fill="#523EC1"/>
<circle cx="231.5" cy="399.5" r="46.5" fill="#0B1F51"/>
<path fill-rule="evenodd" clip-rule="evenodd" d="M372.058 35H280C284.434 56.1251 303.357 72 326.029 72C348.701 72 367.624 56.1251 372.058 35Z" fill="#523EC1"/>
<path fill-rule="evenodd" clip-rule="evenodd" d="M372.058 35H280C284.434 56.1251 303.357 72 326.029 72C348.701 72 367.624 56.1251 372.058 35Z" fill="#B7C4D4"/>
<path fill-rule="evenodd" clip-rule="evenodd" d="M372.058 35H280C284.434 56.1251 303.357 72 326.029 72C348.701 72 367.624 56.1251 372.058 35Z" fill="#523EC1"/>
<path fill-rule="evenodd" clip-rule="evenodd" d="M372.058 35H280C284.434 56.1251 303.357 72 326.029 72C348.701 72 367.624 56.1251 372.058 35Z" fill="#B7C4D4"/>
<path fill-rule="evenodd" clip-rule="evenodd" d="M281.19 -22C280.412 -18.6257 280 -15.1109 280 -11.5C280 14.1812 300.819 35 326.5 35C352.181 35 373 14.1812 373 -11.5C373 -15.1109 372.588 -18.6257 371.81 -22H281.19Z" fill="#523EC1"/>
<path fill-rule="evenodd" clip-rule="evenodd" d="M281.19 -22C280.412 -18.6257 280 -15.1109 280 -11.5C280 14.1812 300.819 35 326.5 35C352.181 35 373 14.1812 373 -11.5C373 -15.1109 372.588 -18.6257 371.81 -22H281.19Z" fill="#0B1F51"/>
<path fill-rule="evenodd" clip-rule="evenodd" d="M222 261.665C200.995 265.43 185 284.742 185 308C185 331.258 200.995 350.57 222 354.335L222 261.665Z" fill="#523EC1"/>
<path fill-rule="evenodd" clip-rule="evenodd" d="M222 261.665C200.995 265.43 185 284.742 185 308C185 331.258 200.995 350.57 222 354.335L222 261.665Z" fill="#B7C4D4"/>
<path fill-rule="evenodd" clip-rule="evenodd" d="M278 262.982C274.682 262.203 271.225 261.792 267.675 261.792C242.42 261.792 221.948 282.611 221.948 308.292C221.948 333.973 242.42 354.792 267.675 354.792C271.225 354.792 274.682 354.38 278 353.602V262.982Z" fill="#523EC1"/>
<path fill-rule="evenodd" clip-rule="evenodd" d="M278 262.982C274.682 262.203 271.225 261.792 267.675 261.792C242.42 261.792 221.948 282.611 221.948 308.292C221.948 333.973 242.42 354.792 267.675 354.792C271.225 354.792 274.682 354.38 278 353.602V262.982Z" fill="#0B1F51"/>
<path fill-rule="evenodd" clip-rule="evenodd" d="M-2 167H89.9884C89.9961 166.517 90 166.032 90 165.547C90 115.7 48.8558 75.2607 -2 75V167Z" fill="#523EC1"/>
<path fill-rule="evenodd" clip-rule="evenodd" d="M-2 167H89.9884C89.9961 166.517 90 166.032 90 165.547C90 115.7 48.8558 75.2607 -2 75V167Z" fill="#523EC1"/>
<path fill-rule="evenodd" clip-rule="evenodd" d="M371 168H279.012C279.004 168.483 279 168.968 279 169.453C279 219.3 320.144 259.739 371 260V168Z" fill="#523EC1"/>
<path fill-rule="evenodd" clip-rule="evenodd" d="M371 168H279.012C279.004 168.483 279 168.968 279 169.453C279 219.3 320.144 259.739 371 260V168Z" fill="#523EC1"/>
<path d="M311.968 356C303.823 312.799 320.985 292.035 363 274" stroke="#0C36C2" stroke-width="2"/>
<path d="M322 344C325.957 314.141 334.372 304.012 356 293" stroke="#0B1F51" stroke-width="2"/>
<path fill-rule="evenodd" clip-rule="evenodd" d="M94 28H-0.5V30H94C138.735 30 175 66.2649 175 111C175 111.334 174.998 111.667 174.994 112H175.01C175.003 112.166 175 112.333 175 112.5C175 119.236 180.328 124.728 187 124.99V125C231.735 125 268 161.265 268 206C268 250.735 231.735 287 187 287V287.038C180.288 287.549 175 293.157 175 300V433H177V300C177 294.262 181.393 289.55 187 289.045V289C232.84 289 270 251.84 270 206C270 160.16 232.84 123 187 123V122.988C181.433 122.727 177 118.131 177 112.5C177 112.332 177.004 112.166 177.012 112H176.994C176.998 111.667 177 111.334 177 111C177 65.3271 140.11 28.2705 94.5 28.0015V28H94ZM164.998 112C164.999 111.833 165 111.667 165 111.5C165 72.5129 133.796 40.8138 95 40.0154V40H0V42H94V42.0018C132.154 42.2706 163 73.283 163 111.5C163 111.667 162.999 111.833 162.998 112H163.02C163.007 112.332 163 112.665 163 113C163 126.255 173.745 137 187 137V137.002C225.154 137.271 256 168.283 256 206.5C256 244.717 225.154 275.729 187 275.998V276C173.745 276 163 286.745 163 300V433H165V300C165 287.85 174.85 278 187 278V277.998C226.258 277.729 258 245.822 258 206.5C258 167.178 226.258 135.271 187 135.002V135C174.85 135 165 125.15 165 113C165 112.665 165.007 112.331 165.022 112H164.998ZM152.998 112C152.999 111.833 153 111.667 153 111.5C153 78.8059 126.631 52.2706 94 52.0021V52H-1V54H94V54.0021C125.526 54.2707 151 79.9105 151 111.5C151 111.667 150.999 111.834 150.998 112H151.014C151.005 112.332 151 112.666 151 113C151 132.882 167.118 149 187 149V149.002C218.526 149.271 244 174.91 244 206.5C244 238.09 218.526 263.729 187 263.998V264C167.118 264 151 280.118 151 300V432H153V300C153 281.222 168.222 266 187 266V265.998C219.631 265.729 246 239.194 246 206.5C246 173.806 219.631 147.271 187 147.002V147C168.222 147 153 131.778 153 113C153 112.666 153.005 112.332 153.014 112H152.998ZM140.977 112C140.992 111.502 141 111.002 141 110.5C141 84.6006 120.272 63.5426 94.5 63.0103V63H-0.5V65H94V65.0027C118.899 65.2708 139 85.5379 139 110.5C139 111.002 138.992 111.502 138.976 112H139.01C139.003 112.333 139 112.666 139 113C139 139.51 160.49 161 187 161V161.003C211.899 161.271 232 181.538 232 206.5C232 231.462 211.899 251.729 187 251.997V252C160.49 252 139 273.49 139 300V430H141V300C141 274.595 161.595 254 187 254V253.997C213.003 253.729 234 232.567 234 206.5C234 180.433 213.003 159.271 187 159.003V159C161.595 159 141 138.405 141 113C141 112.666 141.004 112.332 141.011 112H140.977ZM129.986 112C129.995 111.668 130 111.334 130 111C130 91.2847 114.152 75.2709 94.5 75.0034V75H94H-0.5V77H94C112.778 77 128 92.2223 128 111C128 111.334 127.995 111.668 127.986 112H128.002C128.001 112.167 128 112.333 128 112.5C128 145.194 154.369 171.729 187 171.998V172C205.778 172 221 187.222 221 206C221 224.778 205.778 240 187 240V240.008C154.324 240.542 128 267.197 128 300V428H130V300C130 268.301 155.429 242.542 187 242.008V242C206.882 242 223 225.882 223 206C223 186.118 206.882 170 187 170V169.998C155.474 169.729 130 144.09 130 112.5C130 112.399 130 112.299 130.001 112.198C130.001 112.132 130.002 112.066 130.002 112H129.986ZM117.98 112C117.993 111.668 118 111.335 118 111C118 97.9122 107.524 87.2713 94.5 87.0051V87H94H-0.5V89H94C106.15 89 116 98.8497 116 111C116 111.335 115.993 111.669 115.978 112H116.002C116.001 112.167 116 112.333 116 112.5C116 151.822 147.742 183.729 187 183.998V184C199.15 184 209 193.85 209 206C209 218.15 199.15 228 187 228V228.007C147.696 228.542 116 260.569 116 300V424H118V300C118 261.674 148.801 230.542 187 230.007V230C200.255 230 211 219.255 211 206C211 192.745 200.255 182 187 182V181.998C148.846 181.729 118 150.717 118 112.5C118 112.333 118.001 112.167 118.002 112H117.98ZM105.99 112C105.997 111.834 106 111.667 106 111.5C106 104.933 100.936 99.5489 94.5 99.0394V99H-0.5V101H94V101.012C99.5668 101.273 104 105.869 104 111.5C104 111.668 103.996 111.834 103.988 112H104.006C104.002 112.333 104 112.666 104 113C104 158.84 141.16 196 187 196V196.012C192.567 196.273 197 200.869 197 206.5C197 212.131 192.567 216.727 187 216.988V217C141.16 217 104 254.16 104 300V420H106V300C106 255.265 142.265 219 187 219V218.99C193.672 218.728 199 213.236 199 206.5C199 199.764 193.672 194.272 187 194.01V194C142.265 194 106 157.735 106 113C106 112.666 106.002 112.333 106.006 112H105.99Z" fill="#6557C8"/>
<circle cx="76" cy="53" r="7" fill="#1A1E28"/>
<circle cx="126" cy="95" r="7" fill="#1A1E28"/>
<circle cx="30" cy="88" r="7" fill="#1A1E28"/>
<circle cx="57" cy="88" r="7" fill="#1A1E28"/>
<circle cx="214" cy="142" r="7" fill="#1A1E28"/>
<circle cx="221" cy="198" r="7" fill="#1A1E28"/>
<circle cx="129" cy="298" r="7" fill="#1A1E28"/>
<circle cx="129" cy="321" r="7" fill="#1A1E28"/>
<circle cx="220" cy="218" r="7" fill="#1A1E28"/>
</g>
</svg>
